<svg xmlns="http://www.w3.org/2000/svg" width="50" height="50" viewBox="0 0 50 50">
  <g id="Layer_2" data-name="Layer 2">
    <g id="Layer_1-2" data-name="Layer 1">
      <path d="M46.09,13.49a1.24,1.24,0,0,0,0-.33v0a1.33,1.33,0,0,0-.13-.33.56.56,0,0,1,0-.08l-.16-.21a.46.46,0,0,1-.07-.07,1.39,1.39,0,0,0-.27-.21h0l-19.59-11a1.55,1.55,0,0,0-1.48,0l-19.59,11h0a1.39,1.39,0,0,0-.27.21l-.06.07a1.18,1.18,0,0,0-.17.22l0,.07a1.33,1.33,0,0,0-.13.33v0a1.24,1.24,0,0,0,0,.33s0,0,0,0V36.27a1.51,1.51,0,0,0,.76,1.31L24.25,48.8h0a1,1,0,0,0,.24.1l.12.05a1.47,1.47,0,0,0,.76,0,.43.43,0,0,0,.12-.05,1.09,1.09,0,0,0,.25-.1h0L45.34,37.58a1.51,1.51,0,0,0,.76-1.31V13.53S46.09,13.51,46.09,13.49ZM25,4.22l16.59,9.34L25,23.31,8.41,13.56ZM6.9,16.16l16.6,9.75v19L6.9,35.4ZM43.1,35.4,26.5,44.91v-19l16.6-9.75Z" fill="#1b1c1c"/>
      <rect width="50" height="50" fill="none"/>
    </g>
  </g>
</svg>
