<?xml version="1.0" encoding="utf-8"?>
<!-- Generator: Adobe Illustrator 24.1.3, SVG Export Plug-In . SVG Version: 6.00 Build 0)  -->
<svg version="1.1" id="Layer_1" xmlns="http://www.w3.org/2000/svg" xmlns:xlink="http://www.w3.org/1999/xlink" x="0px" y="0px"
	 viewBox="0 0 130 110" style="enable-background:new 0 0 130 110;" xml:space="preserve">
<style type="text/css">
	.st0{fill:none;stroke:#030505;stroke-width:2;stroke-miterlimit:10;}
	.st1{fill:none;stroke:#030505;stroke-width:2;stroke-linecap:round;stroke-linejoin:round;stroke-miterlimit:10;}
	.st2{fill:#030505;}
	.st3{fill:none;stroke:#030505;stroke-width:2;stroke-linejoin:round;stroke-miterlimit:10;}
</style>
<path class="st1" d="M102.96,17.04c-0.68-0.68-1.74-0.99-2.79-0.55l-72.33,30.3c-1.14,0.48-1.63,1.53-1.56,2.53
	c0.08,1.08,0.81,2.11,2.11,2.33l32.26,5.62c0.53,0.09,1,0.35,1.37,0.71c0.36,0.36,0.62,0.84,0.71,1.37l5.62,32.26
	c0.25,1.41,1.44,2.15,2.61,2.11c0.92-0.03,1.82-0.53,2.25-1.56l30.3-72.33C103.95,18.77,103.65,17.72,102.96,17.04z"/>
</svg>
