<?xml version="1.0" encoding="utf-8"?>
<!-- Generator: Adobe Illustrator 24.1.3, SVG Export Plug-In . SVG Version: 6.00 Build 0)  -->
<svg version="1.1" id="Layer_1" xmlns="http://www.w3.org/2000/svg" xmlns:xlink="http://www.w3.org/1999/xlink" x="0px" y="0px"
	 viewBox="0 0 130 110" style="enable-background:new 0 0 130 110;" xml:space="preserve">
<style type="text/css">
	.st0{fill:none;stroke:#030505;stroke-width:2;stroke-miterlimit:10;}
	.st1{fill:none;stroke:#030505;stroke-width:2;stroke-linecap:round;stroke-linejoin:round;stroke-miterlimit:10;}
	.st2{fill:#030505;}
	.st3{fill:none;stroke:#030505;stroke-width:2;stroke-linejoin:round;stroke-miterlimit:10;}
</style>
<g>
	<polygon class="st3" points="39.21,29.73 67.29,29.73 70.14,29.73 61.15,19.69 37.07,16.57 27.38,44.2 39.21,48.06 	"/>
	<path class="st3" d="M39.21,57.51v-4.15c-1.56-0.52-3.64-1.2-5.77-1.92l-6.5,11.33l9.1,7.28L39.21,57.51z"/>
	<polygon class="st3" points="39.21,79.39 39.21,71.66 32.39,91.77 52.88,83.24 56.89,79.39 	"/>
	<polygon class="st3" points="88.82,49.18 101.69,36.29 80.85,15.99 72.95,26.28 75.63,29.73 88.82,29.73 	"/>
	<polygon class="st3" points="88.82,55.86 88.82,79.39 64.58,79.39 63.02,79.39 58.6,83.61 72.28,94.01 101.92,81.89 103.07,41.76 	
		"/>
	<line class="st3" x1="47.89" y1="39.67" x2="56.89" y2="39.67"/>
	<line class="st3" x1="47.89" y1="54.24" x2="56.89" y2="54.24"/>
	<line class="st3" x1="47.89" y1="70.04" x2="62.67" y2="70.04"/>
	<line class="st3" x1="52.39" y1="39.67" x2="52.39" y2="54.24"/>
	<path class="st3" d="M59.55,50.08v1.04c0,1.72,1.4,3.12,3.12,3.12h0c1.72,0,3.12-1.4,3.12-3.12V38.83"/>
</g>
</svg>
