<?xml version="1.0" encoding="utf-8"?>
<!-- Generator: Adobe Illustrator 24.1.3, SVG Export Plug-In . SVG Version: 6.00 Build 0)  -->
<svg version="1.1" id="Layer_1" xmlns="http://www.w3.org/2000/svg" xmlns:xlink="http://www.w3.org/1999/xlink" x="0px" y="0px"
	 viewBox="0 0 130 110" style="enable-background:new 0 0 130 110;" xml:space="preserve">
<style type="text/css">
	.st0{fill:none;stroke:#030505;stroke-width:2;stroke-miterlimit:10;}
	.st1{fill:none;stroke:#030505;stroke-width:2;stroke-linecap:round;stroke-linejoin:round;stroke-miterlimit:10;}
	.st2{fill:#030505;}
	.st3{fill:none;stroke:#030505;stroke-width:2;stroke-linejoin:round;stroke-miterlimit:10;}
</style>
<g>
	<path class="st1" d="M37.05,49.07c-2.93-18.01,4.85-29.43,7.58-32.73c-5.95,1.06-10.35,3.02-11.98,3.79
		c-0.69,27.39,1.79,64.15,1.79,64.15c4.08,1.26,15.04,1.59,17.97,1.63C50.14,82.82,40.11,68.35,37.05,49.07z"/>
	<path class="st1" d="M44.63,16.34c0,0,15.56-0.12,28.6,3.1c0.37,1.14,1.67,5.67,2.4,9.94c0,0-20.02-7.66-27.15,3.68
		c-7.99,12.7,2.61,38.14,8.52,52.44c-2.71-17.93-1.8-25.5,0.15-27.88c2.79-3.4,10.15-1.79,15.38-2.51c0.62-0.08,1.11-0.56,1.19-1.18
		c0.48-4.01-0.05-7.66-0.38-9.42c-0.12-0.65-0.69-1.11-1.35-1.11h-12.6c-3.48-0.63-4.76-3.7-4.43-7.4
		c1.39-6.95,5.95-8.55,20.68-6.62"/>
	<g>
		<path class="st2" d="M72.74,86.9c-0.58-0.58-1.25-0.98-2.18-1.16c1.51-0.76,2.27-1.73,2.27-3.02c0-0.89-0.36-1.65-1.11-2.36
			c-0.89-0.85-2.14-1.29-3.6-1.29c-0.89,0-1.69,0.13-2.45,0.44c-0.71,0.31-1.25,0.71-1.65,1.2c-0.4,0.53-0.85,1.47-0.8,2.45l2.08,0
			c-0.04-0.09-0.04-0.22-0.04-0.31c0-1.11,1.13-2.14,2.66-2.14c1.29,0,2.75,0.77,2.65,2.17c-0.1,1.24-1.33,1.98-2.62,1.98h-0.67
			v1.69h0.85c1.69,0,3.07,1.2,3.07,2.67c0,1.47-1.38,2.67-3.07,2.67c-1.6,0-2.94-1.11-3.07-2.49h-1.96c0,1.33,0.58,2.45,1.47,3.16
			c0.98,0.76,2.18,1.11,3.65,1.11c1.56,0,2.8-0.44,3.83-1.33c1.02-0.89,1.56-1.96,1.56-3.2C73.59,88.27,73.32,87.52,72.74,86.9z"/>
		<path class="st2" d="M84.04,85.44c-0.93-0.85-1.75-1.3-3.09-1.3c-1.11,0-2.71,0.33-3.74,2.31c-0.13-1.38,0.44-3.69,1.42-4.62
			c0.49-0.44,1.03-0.84,1.96-0.8c0.68,0.03,1.25,0.31,1.69,0.8c0.27,0.31,0.4,0.53,0.44,1.07h1.91c0.04-1.11-0.51-2.18-1.32-2.81
			c-0.8-0.58-1.89-0.9-2.83-0.9c-1.07,0-2.48,0.46-3.55,1.61c-1.07,1.16-1.65,3.02-1.65,5.65c0,2.58,0.53,4.21,1.55,5.32
			c0.89,0.97,2.25,1.69,3.65,1.69c1.47,0,2.71-0.61,3.44-1.33c0.94-0.93,1.43-1.85,1.43-3.32C85.37,87.44,84.93,86.32,84.04,85.44z
			 M80.82,91.66c-1.42,0-2.58-1.29-2.58-2.89c0-0.4,0.09-0.76,0.22-1.11c0.13-0.31,0.31-0.62,0.53-0.89
			c0.49-0.53,1.11-0.85,1.82-0.85c1.42,0,2.58,1.29,2.58,2.85C83.4,90.37,82.24,91.66,80.82,91.66z"/>
		<path class="st2" d="M95.91,80.53c-0.89-0.98-2.09-1.47-3.65-1.47c-1.51,0-2.76,0.49-3.65,1.47c-1.02,1.16-1.6,3.11-1.6,5.78
			c0,2.76,0.53,4.67,1.47,5.74c0.98,1.07,2.27,1.6,3.78,1.6c1.56,0,2.76-0.49,3.65-1.47c1.07-1.2,1.56-3.11,1.56-5.83
			C97.47,83.65,96.98,81.69,95.91,80.53z M95.06,86.6c-0.05,1.51-0.19,3.17-0.71,4.12c-0.57,0.95-1.28,1.32-2.08,1.32
			c-0.71,0-1.42-0.33-1.94-1.14c-0.57-0.99-0.76-2.7-0.8-4.31v-0.47c0-1.51,0.19-3.17,0.71-4.12c0.57-0.95,1.28-1.32,2.08-1.32
			c0.71,0,1.42,0.33,1.94,1.14c0.57,0.99,0.76,2.7,0.8,4.31V86.6z"/>
	</g>
</g>
</svg>
