<?xml version="1.0" encoding="utf-8"?>
<!-- Generator: Adobe Illustrator 24.1.3, SVG Export Plug-In . SVG Version: 6.00 Build 0)  -->
<svg version="1.1" id="Layer_1" xmlns="http://www.w3.org/2000/svg" xmlns:xlink="http://www.w3.org/1999/xlink" x="0px" y="0px"
	 viewBox="0 0 130 110" style="enable-background:new 0 0 130 110;" xml:space="preserve">
<style type="text/css">
	.st0{fill:none;stroke:#030505;stroke-width:2;stroke-miterlimit:10;}
	.st1{fill:none;stroke:#030505;stroke-width:2;stroke-linecap:round;stroke-linejoin:round;stroke-miterlimit:10;}
	.st2{fill:#030505;}
	.st3{fill:none;stroke:#030505;stroke-width:2;stroke-linejoin:round;stroke-miterlimit:10;}
</style>
<g>
	<polyline class="st1" points="77.52,28.8 70.9,22.18 65,16.28 59.1,22.18 52.48,28.8 	"/>
	<polyline class="st1" points="52.48,81.2 59.1,87.82 65,93.72 70.9,87.82 77.52,81.2 	"/>
	<polyline class="st1" points="91.2,67.52 97.82,60.9 103.72,55 97.82,49.1 91.2,42.48 	"/>
	<polyline class="st1" points="38.8,42.48 32.18,49.1 26.28,55 32.18,60.9 38.8,67.52 	"/>
	<path class="st1" d="M64.99,41.33c-7.62,0-13.76,6.23-13.61,13.99c0.13,6.96,5.71,12.83,12.66,13.31
		c7.96,0.54,14.67-5.73,14.67-13.58C78.7,47.42,72.52,41.33,64.99,41.33z"/>
	<path class="st1" d="M64.99,41.33c-7.62,0-13.76,6.23-13.61,13.99c0.13,6.96,5.71,12.83,12.66,13.31
		c7.96,0.54,14.67-5.73,14.67-13.58C78.7,47.42,72.52,41.33,64.99,41.33z"/>
</g>
</svg>
