<?xml version="1.0" encoding="utf-8"?>
<!-- Generator: Adobe Illustrator 24.1.3, SVG Export Plug-In . SVG Version: 6.00 Build 0)  -->
<svg version="1.1" id="Layer_1" xmlns="http://www.w3.org/2000/svg" xmlns:xlink="http://www.w3.org/1999/xlink" x="0px" y="0px"
	 viewBox="0 0 781.45 583.9" style="enable-background:new 0 0 781.45 583.9;" xml:space="preserve">
<style type="text/css">
	.st0{fill:none;stroke:#030505;stroke-width:2;stroke-miterlimit:10;}
	.st1{fill:none;stroke:#030505;stroke-width:2;stroke-linecap:round;stroke-linejoin:round;stroke-miterlimit:10;}
	.st2{fill:#030505;}
	.st3{fill:none;stroke:#030505;stroke-width:2;stroke-linejoin:round;stroke-miterlimit:10;}
</style>
<g>
	<g>
		<g>
			<g>
				<path class="st0" d="M131.03,170.65l58.12-19.16c0.19-0.06,0.39-0.02,0.53,0.08c0.15,0.11,0.24,0.28,0.24,0.48v19.57
					c0,0.2-0.07,0.4-0.18,0.56c-0.11,0.16-0.28,0.28-0.47,0.34l-18.45,5.97c-0.08,0.03-0.17,0.04-0.25,0.05"/>
			</g>
			<g>
				<path class="st0" d="M131.48,191.7l57.86,18.05c0.15,0.05,0.3,0.01,0.41-0.07c0.11-0.08,0.19-0.21,0.19-0.37v-19.75
					c0-0.22-0.07-0.42-0.2-0.58c-0.12-0.15-0.27-0.26-0.46-0.32l-57.86-18.05c-0.14-0.04-0.27-0.02-0.38,0.05
					c-0.13,0.08-0.21,0.22-0.21,0.39v19.75c0,0.21,0.07,0.4,0.18,0.56C131.12,191.51,131.29,191.63,131.48,191.7z"/>
			</g>
			<g>
				<path class="st0" d="M189.34,209.74l-57.76,19.12c-0.18,0.06-0.36,0.03-0.5-0.06c-0.16-0.1-0.28-0.29-0.28-0.5v-19.57
					c0-0.21,0.07-0.42,0.2-0.58c0.11-0.15,0.27-0.26,0.46-0.32l18.45-5.97"/>
			</g>
		</g>
	</g>
	<g>
		<path class="st1" d="M132.42,387.5c-2.93-18.01,4.85-29.43,7.58-32.73c-5.95,1.06-10.35,3.02-11.98,3.79
			c-0.69,27.39,1.79,64.15,1.79,64.15c4.08,1.26,15.04,1.59,17.97,1.63C145.51,421.25,135.48,406.78,132.42,387.5z"/>
		<path class="st1" d="M140,354.77c0,0,15.56-0.12,28.6,3.1c0.37,1.14,1.67,5.67,2.4,9.94c0,0-20.02-7.66-27.15,3.68
			c-7.99,12.7,2.61,38.14,8.52,52.44c-2.71-17.93-1.8-25.5,0.15-27.88c2.79-3.4,10.15-1.79,15.38-2.51
			c0.62-0.08,1.11-0.56,1.19-1.18c0.48-4.01-0.05-7.66-0.38-9.42c-0.12-0.65-0.69-1.11-1.35-1.11h-12.6
			c-3.48-0.63-4.76-3.7-4.43-7.4c1.39-6.95,5.95-8.55,20.68-6.62"/>
		<g>
			<path class="st2" d="M168.11,425.33c-0.58-0.58-1.25-0.98-2.18-1.16c1.51-0.76,2.27-1.73,2.27-3.02c0-0.89-0.36-1.65-1.11-2.36
				c-0.89-0.85-2.14-1.29-3.6-1.29c-0.89,0-1.69,0.13-2.45,0.44c-0.71,0.31-1.25,0.71-1.65,1.2c-0.4,0.53-0.85,1.47-0.8,2.45l2.08,0
				c-0.04-0.09-0.04-0.22-0.04-0.31c0-1.11,1.13-2.14,2.66-2.14c1.29,0,2.75,0.77,2.65,2.17c-0.1,1.24-1.33,1.98-2.62,1.98h-0.67
				v1.69h0.85c1.69,0,3.07,1.2,3.07,2.67c0,1.47-1.38,2.67-3.07,2.67c-1.6,0-2.94-1.11-3.07-2.49h-1.96c0,1.33,0.58,2.45,1.47,3.16
				c0.98,0.76,2.18,1.11,3.65,1.11c1.56,0,2.8-0.44,3.83-1.33c1.02-0.89,1.56-1.96,1.56-3.2
				C168.96,426.7,168.69,425.95,168.11,425.33z"/>
			<path class="st2" d="M179.41,423.86c-0.93-0.85-1.75-1.3-3.09-1.3c-1.11,0-2.71,0.33-3.74,2.31c-0.13-1.38,0.44-3.69,1.42-4.62
				c0.49-0.44,1.03-0.84,1.96-0.8c0.68,0.03,1.25,0.31,1.69,0.8c0.27,0.31,0.4,0.53,0.44,1.07h1.91c0.04-1.11-0.51-2.18-1.32-2.81
				c-0.8-0.58-1.89-0.9-2.83-0.9c-1.07,0-2.48,0.46-3.55,1.61c-1.07,1.16-1.65,3.02-1.65,5.65c0,2.58,0.53,4.21,1.55,5.32
				c0.89,0.97,2.25,1.69,3.65,1.69c1.47,0,2.71-0.61,3.44-1.33c0.94-0.93,1.43-1.85,1.43-3.32
				C180.74,425.87,180.3,424.75,179.41,423.86z M176.19,430.08c-1.42,0-2.58-1.29-2.58-2.89c0-0.4,0.09-0.76,0.22-1.11
				c0.13-0.31,0.31-0.62,0.53-0.89c0.49-0.53,1.11-0.85,1.82-0.85c1.42,0,2.58,1.29,2.58,2.85
				C178.77,428.79,177.61,430.08,176.19,430.08z"/>
			<path class="st2" d="M191.29,418.96c-0.89-0.98-2.09-1.47-3.65-1.47c-1.51,0-2.76,0.49-3.65,1.47c-1.02,1.16-1.6,3.11-1.6,5.78
				c0,2.76,0.53,4.67,1.47,5.74c0.98,1.07,2.27,1.6,3.78,1.6c1.56,0,2.76-0.49,3.65-1.47c1.07-1.2,1.56-3.11,1.56-5.83
				C192.84,422.08,192.35,420.12,191.29,418.96z M190.43,425.03c-0.05,1.51-0.19,3.17-0.71,4.12c-0.57,0.95-1.28,1.32-2.08,1.32
				c-0.71,0-1.42-0.33-1.94-1.14c-0.57-0.99-0.76-2.7-0.8-4.31v-0.47c0-1.51,0.19-3.17,0.71-4.12c0.57-0.95,1.28-1.32,2.08-1.32
				c0.71,0,1.42,0.33,1.94,1.14c0.57,0.99,0.76,2.7,0.8,4.31V425.03z"/>
		</g>
	</g>
	<path class="st1" d="M487.01,152.21c-0.68-0.68-1.74-0.99-2.79-0.55l-72.33,30.3c-1.14,0.48-1.63,1.53-1.56,2.53
		c0.08,1.08,0.81,2.11,2.11,2.33l32.26,5.62c0.53,0.09,1,0.35,1.37,0.71c0.36,0.36,0.62,0.84,0.71,1.37l5.62,32.26
		c0.25,1.41,1.44,2.15,2.61,2.11c0.92-0.03,1.82-0.53,2.25-1.56l30.3-72.33C488,153.95,487.69,152.9,487.01,152.21z"/>
	<g>
		<line class="st1" x1="298.01" y1="188.09" x2="275.01" y2="175.56"/>
		<line class="st1" x1="275.01" y1="199.3" x2="298.01" y2="188.09"/>
		<line class="st1" x1="320.91" y1="204.8" x2="298.01" y2="204.8"/>
	</g>
	<g>
		<polyline class="st1" points="627.35,163.98 620.74,157.36 614.83,151.46 608.93,157.36 602.32,163.98 		"/>
		<polyline class="st1" points="602.32,216.38 608.93,222.99 614.83,228.89 620.74,222.99 627.35,216.38 		"/>
		<polyline class="st1" points="641.03,202.69 647.65,196.08 653.55,190.18 647.65,184.28 641.03,177.66 		"/>
		<polyline class="st1" points="588.63,177.66 582.02,184.28 576.12,190.18 582.02,196.08 588.63,202.69 		"/>
		<path class="st1" d="M614.83,176.51c-7.62,0-13.76,6.23-13.61,13.99c0.13,6.96,5.71,12.83,12.66,13.31
			c7.96,0.54,14.67-5.73,14.67-13.58C628.54,182.59,622.36,176.51,614.83,176.51z"/>
		<path class="st1" d="M614.83,176.51c-7.62,0-13.76,6.23-13.61,13.99c0.13,6.96,5.71,12.83,12.66,13.31
			c7.96,0.54,14.67-5.73,14.67-13.58C628.54,182.59,622.36,176.51,614.83,176.51z"/>
	</g>
	<g>
		<line class="st1" x1="580.75" y1="384.61" x2="580.75" y2="397.91"/>
		<line class="st1" x1="580.75" y1="359.35" x2="580.75" y2="372.65"/>
		<line class="st1" x1="580.75" y1="410.67" x2="580.75" y2="423.97"/>
		<line class="st1" x1="645.38" y1="384.61" x2="645.38" y2="394.77"/>
		<line class="st1" x1="645.38" y1="359.35" x2="645.38" y2="372.65"/>
		<line class="st1" x1="606.02" y1="359.35" x2="619.32" y2="359.35"/>
		<line class="st1" x1="580.75" y1="359.35" x2="594.05" y2="359.35"/>
		<line class="st1" x1="632.08" y1="359.35" x2="645.38" y2="359.35"/>
		<line class="st1" x1="606.02" y1="423.97" x2="616.17" y2="423.97"/>
		<line class="st1" x1="580.75" y1="423.97" x2="594.05" y2="423.97"/>
		<polygon class="st1" points="648.91,406.49 615.24,393.83 627.9,427.51 631.68,417.49 640.79,426.59 648,419.38 638.89,410.28 		
			"/>
	</g>
	<g>
		<line class="st1" x1="449.05" y1="385.65" x2="449.05" y2="355.3"/>
		<polyline class="st1" points="435.78,368.56 449.05,355.3 462.31,368.56 		"/>
		<line class="st1" x1="449.05" y1="401.21" x2="449.05" y2="431.56"/>
		<polyline class="st1" points="462.31,418.3 449.05,431.56 435.78,418.3 		"/>
		<line class="st1" x1="456.82" y1="393.43" x2="487.18" y2="393.43"/>
		<polyline class="st1" points="473.92,380.17 487.18,393.43 473.92,406.69 		"/>
		<line class="st1" x1="441.27" y1="393.43" x2="410.91" y2="393.43"/>
		<polyline class="st1" points="424.18,406.69 410.91,393.43 424.18,380.17 		"/>
	</g>
	<g>
		<polygon class="st3" points="272.17,368.16 300.25,368.16 303.1,368.16 294.11,358.12 270.03,355 260.34,382.63 272.17,386.49 		
			"/>
		<path class="st3" d="M272.17,395.94v-4.15c-1.56-0.52-3.64-1.2-5.77-1.92l-6.5,11.33l9.1,7.28L272.17,395.94z"/>
		<polygon class="st3" points="272.17,417.82 272.17,410.09 265.35,430.2 285.84,421.67 289.85,417.82 		"/>
		<polygon class="st3" points="321.78,387.61 334.65,374.72 313.81,354.42 305.91,364.71 308.59,368.16 321.78,368.16 		"/>
		<polygon class="st3" points="321.78,394.29 321.78,417.82 297.55,417.82 295.99,417.82 291.57,422.04 305.24,432.44 
			334.88,420.32 336.03,380.19 		"/>
		<line class="st3" x1="280.86" y1="378.1" x2="289.85" y2="378.1"/>
		<line class="st3" x1="280.86" y1="392.67" x2="289.85" y2="392.67"/>
		<line class="st3" x1="280.86" y1="408.47" x2="295.63" y2="408.47"/>
		<line class="st3" x1="285.35" y1="378.1" x2="285.35" y2="392.67"/>
		<path class="st3" d="M292.51,388.51v1.04c0,1.72,1.4,3.12,3.12,3.12l0,0c1.72,0,3.12-1.4,3.12-3.12v-12.28"/>
	</g>
</g>
</svg>
