<?xml version="1.0" encoding="utf-8"?>
<!-- Generator: Adobe Illustrator 24.1.3, SVG Export Plug-In . SVG Version: 6.00 Build 0)  -->
<svg version="1.1" id="Layer_1" xmlns="http://www.w3.org/2000/svg" xmlns:xlink="http://www.w3.org/1999/xlink" x="0px" y="0px"
	 viewBox="0 0 130 110" style="enable-background:new 0 0 130 110;" xml:space="preserve">
<style type="text/css">
	.st0{fill:none;stroke:#030505;stroke-width:2;stroke-miterlimit:10;}
	.st1{fill:none;stroke:#030505;stroke-width:2;stroke-linecap:round;stroke-linejoin:round;stroke-miterlimit:10;}
	.st2{fill:#030505;}
	.st3{fill:none;stroke:#030505;stroke-width:2;stroke-linejoin:round;stroke-miterlimit:10;}
</style>
<g>
	<g>
		<g>
			<path class="st0" d="M35.66,35.48l58.12-19.16c0.19-0.06,0.39-0.02,0.53,0.08c0.15,0.11,0.24,0.28,0.24,0.48v19.57
				c0,0.2-0.07,0.4-0.18,0.56c-0.11,0.16-0.28,0.28-0.47,0.34l-18.45,5.97c-0.08,0.03-0.17,0.04-0.25,0.05"/>
		</g>
		<g>
			<path class="st0" d="M36.11,56.52l57.86,18.05c0.15,0.05,0.3,0.01,0.41-0.07c0.11-0.08,0.19-0.21,0.19-0.37V54.37
				c0-0.22-0.07-0.42-0.2-0.58c-0.12-0.15-0.27-0.26-0.46-0.32L36.04,35.43c-0.14-0.04-0.27-0.02-0.38,0.05
				c-0.13,0.08-0.21,0.22-0.21,0.39v19.75c0,0.21,0.07,0.4,0.18,0.56C35.75,56.33,35.92,56.46,36.11,56.52z"/>
		</g>
		<g>
			<path class="st0" d="M93.97,74.56L36.21,93.69c-0.18,0.06-0.36,0.03-0.5-0.06c-0.16-0.1-0.28-0.29-0.28-0.5V73.56
				c0-0.21,0.07-0.42,0.2-0.58c0.11-0.15,0.27-0.26,0.46-0.32l18.45-5.97"/>
		</g>
	</g>
</g>
</svg>
